<svg version="1.1" xmlns="http://www.w3.org/2000/svg" viewBox="0 0 1141.1425704956055 333" width="3423.4277114868164" height="999">
  <!-- svg-source:excalidraw -->
  
  <defs>
    <style class="style-fonts">
      @font-face {
        font-family: "Virgil";
        src: url("https://excalidraw.com/Virgil.woff2");
      }
      @font-face {
        font-family: "Cascadia";
        src: url("https://excalidraw.com/Cascadia.woff2");
      }
      @font-face {
        font-family: "Assistant";
        src: url("https://app.excalidraw.com//dist/excalidraw-assets/Assistant-Regular.woff2");
      }
    </style>
    
  </defs>
  <g stroke-linecap="round"><g transform="translate(847 151.80889719009605) rotate(0 56.5 -1.7096555973519685)"><path d="M0 0 C18.83 -0.57, 94.17 -2.85, 113 -3.42 M0 0 C18.83 -0.57, 94.17 -2.85, 113 -3.42" stroke="transparent" stroke-width="1" fill="none"/></g><g transform="translate(847 151.80889719009605) rotate(0 56.5 -1.7096555973519685)"><path d="M113 -3.42 L99.6 3.33 L99.22 -9.34 L113 -3.42" stroke="none" stroke-width="0" fill="transparent" fill-rule="evenodd"/><path d="M113 -3.42 C109.47 -1.64, 105.93 0.14, 99.6 3.33 M113 -3.42 C109.27 -1.54, 105.54 0.34, 99.6 3.33 M99.6 3.33 C99.49 -0.35, 99.38 -4.02, 99.22 -9.34 M99.6 3.33 C99.46 -1.29, 99.32 -5.92, 99.22 -9.34 M99.22 -9.34 C102.4 -7.98, 105.59 -6.61, 113 -3.42 M99.22 -9.34 C104.46 -7.09, 109.69 -4.84, 113 -3.42 M113 -3.42 C113 -3.42, 113 -3.42, 113 -3.42 M113 -3.42 C113 -3.42, 113 -3.42, 113 -3.42" stroke="transparent" stroke-width="1" fill="none"/></g></g><mask/><g stroke-linecap="round"><g transform="translate(845 161.18502710230746) rotate(0 29.5 -0.09251355115372917)"><path d="M0 0 C9.83 -0.03, 49.17 -0.15, 59 -0.19 M0 0 C9.83 -0.03, 49.17 -0.15, 59 -0.19" stroke="transparent" stroke-width="1" fill="none"/></g><g transform="translate(845 161.18502710230746) rotate(0 29.5 -0.09251355115372917)"><path d="M59 -0.19 L45.43 6.2 L45.39 -6.48 L59 -0.19" stroke="none" stroke-width="0" fill="transparent" fill-rule="evenodd"/><path d="M59 -0.19 C53.96 2.18, 48.92 4.55, 45.43 6.2 M59 -0.19 C55.35 1.53, 51.71 3.24, 45.43 6.2 M45.43 6.2 C45.41 2.32, 45.4 -1.55, 45.39 -6.48 M45.43 6.2 C45.41 1.89, 45.4 -2.43, 45.39 -6.48 M45.39 -6.48 C49.21 -4.71, 53.04 -2.94, 59 -0.19 M45.39 -6.48 C48.5 -5.04, 51.62 -3.6, 59 -0.19 M59 -0.19 C59 -0.19, 59 -0.19, 59 -0.19 M59 -0.19 C59 -0.19, 59 -0.19, 59 -0.19" stroke="transparent" stroke-width="1" fill="none"/></g></g><mask/><g transform="translate(10 123.625) rotate(0 40.51617431640625 17.5)"><text x="0" y="0" font-family="Virgil, Segoe UI Emoji" font-size="28px" fill="#1e1e1e" text-anchor="start" style="white-space: pre;" direction="ltr" dominant-baseline="text-before-edge">import</text></g><g transform="translate(210.08101272583008 123.625) rotate(0 25.508102416992188 17.5)"><text x="0" y="0" font-family="Virgil, Segoe UI Emoji" font-size="28px" fill="#1e1e1e" text-anchor="start" style="white-space: pre;" direction="ltr" dominant-baseline="text-before-edge">tidy</text></g><g stroke-linecap="round" transform="translate(353 10) rotate(0 239 156.5)"><path d="M32 0 C115.85 0, 199.7 0, 446 0 C467.33 0, 478 10.67, 478 32 C478 112.92, 478 193.85, 478 281 C478 302.33, 467.33 313, 446 313 C336.77 313, 227.55 313, 32 313 C10.67 313, 0 302.33, 0 281 C0 194.95, 0 108.91, 0 32 C0 10.67, 10.67 0, 32 0" stroke="none" stroke-width="0" fill="#4dabf7"/><path d="M32 0 C143.99 0, 255.99 0, 446 0 M32 0 C115.64 0, 199.28 0, 446 0 M446 0 C467.33 0, 478 10.67, 478 32 M446 0 C467.33 0, 478 10.67, 478 32 M478 32 C478 90.25, 478 148.5, 478 281 M478 32 C478 107.09, 478 182.17, 478 281 M478 281 C478 302.33, 467.33 313, 446 313 M478 281 C478 302.33, 467.33 313, 446 313 M446 313 C357.93 313, 269.87 313, 32 313 M446 313 C326.32 313, 206.63 313, 32 313 M32 313 C10.67 313, 0 302.33, 0 281 M32 313 C10.67 313, 0 302.33, 0 281 M0 281 C0 211.62, 0 142.25, 0 32 M0 281 C0 188.76, 0 96.51, 0 32 M0 32 C0 10.67, 10.67 0, 32 0 M0 32 C0 10.67, 10.67 0, 32 0" stroke="#1e1e1e" stroke-width="2" fill="none"/></g><g transform="translate(652.67100975631 45) rotate(0 57.28822326660156 17.5)"><text x="0" y="0" font-family="Virgil, Segoe UI Emoji" font-size="28px" fill="#1e1e1e" text-anchor="start" style="white-space: pre;" direction="ltr" dominant-baseline="text-before-edge">visualise</text></g><g transform="translate(564.67100975631 253) rotate(0 35.924156188964844 17.5)"><text x="0" y="0" font-family="Virgil, Segoe UI Emoji" font-size="28px" fill="#1e1e1e" text-anchor="start" style="white-space: pre;" direction="ltr" dominant-baseline="text-before-edge">model</text></g><g stroke-linecap="round"><g transform="translate(774.525128103478 64.5) rotate(0 -53 104)"><path d="M1 -0.59 C4.38 12.53, 23.86 48.98, 20.13 78.45 C16.4 107.92, 3.24 154.68, -21.37 176.23 C-45.99 197.78, -110.16 202.57, -127.57 207.76 M0.06 1.72 C3.84 15.01, 26.12 50.38, 22.38 79.7 C18.65 109.02, 2.67 156.16, -22.33 177.66 C-47.33 199.17, -110.22 203.78, -127.62 208.74" stroke="#1e1e1e" stroke-width="2" fill="none"/></g><g transform="translate(774.525128103478 64.5) rotate(0 -53 104)"><path d="M-126.54 209.75 L-117.11 199.88 L-111.51 210.46 L-128.23 210.34" stroke="none" stroke-width="0" fill="#1e1e1e" fill-rule="evenodd"/><path d="M-127.62 208.74 C-124.85 205.05, -121.32 203.17, -115.43 199.99 M-127.62 208.74 C-122.96 205.58, -120.02 203.78, -115.43 199.99 M-115.43 199.99 C-113.97 203.88, -113.97 208.73, -113.08 212.45 M-115.43 199.99 C-114.88 202.21, -114.67 205.03, -113.08 212.45 M-113.08 212.45 C-118.51 212.57, -121.71 211.51, -127.62 208.74 M-113.08 212.45 C-117.68 211.71, -121.3 211.02, -127.62 208.74 M-127.62 208.74 C-127.62 208.74, -127.62 208.74, -127.62 208.74 M-127.62 208.74 C-127.62 208.74, -127.62 208.74, -127.62 208.74" stroke="#1e1e1e" stroke-width="2" fill="none"/></g></g><mask/><g stroke-linecap="round"><g transform="translate(555.525128103478 273.5) rotate(0 -54.06018384340564 -54.5625)"><path d="M-0.18 -0.35 C-11.93 -2.23, -54.97 -6.07, -71.55 -12.15 C-88.12 -18.23, -93.62 -20.66, -99.65 -36.82 C-105.67 -52.98, -106.39 -97.22, -107.67 -109.1 M-1.74 -1.57 C-13.5 -3.28, -55.75 -5.49, -72.25 -11.21 C-88.76 -16.94, -94.93 -19.81, -100.75 -35.93 C-106.57 -52.06, -105.92 -95.49, -107.18 -107.98" stroke="#1e1e1e" stroke-width="2" fill="none"/></g><g transform="translate(555.525128103478 273.5) rotate(0 -54.06018384340564 -54.5625)"><path d="M-105.5 -106.14 L-99.22 -94.23 L-113.9 -92.29 L-107 -107.95" stroke="none" stroke-width="0" fill="#1e1e1e" fill-rule="evenodd"/><path d="M-107.18 -107.98 C-106.24 -104.61, -105.79 -103.2, -100.21 -94.7 M-107.18 -107.98 C-105 -104.27, -104.63 -102.29, -100.21 -94.7 M-100.21 -94.7 C-104.02 -95.74, -109.95 -93.53, -112.88 -94.1 M-100.21 -94.7 C-103.33 -94.08, -108.17 -94.46, -112.88 -94.1 M-112.88 -94.1 C-110.34 -99.89, -108.34 -105.96, -107.18 -107.98 M-112.88 -94.1 C-110.75 -99.25, -109.07 -102.67, -107.18 -107.98 M-107.18 -107.98 C-107.18 -107.98, -107.18 -107.98, -107.18 -107.98 M-107.18 -107.98 C-107.18 -107.98, -107.18 -107.98, -107.18 -107.98" stroke="#1e1e1e" stroke-width="2" fill="none"/></g></g><mask/><g stroke-linecap="round"><g transform="translate(446.2561204962167 111.375) rotate(0 98.13450380363065 -24.9375)"><path d="M-0.22 -1.03 C4.04 -7.84, 10.5 -32.3, 25.38 -40.63 C40.26 -48.96, 60.79 -49.66, 89.08 -51.01 C117.36 -52.36, 177.2 -49.09, 195.12 -48.73 M-1.79 1.04 C2.42 -5.65, 9.93 -30.94, 25.02 -39.49 C40.1 -48.05, 60.44 -48.94, 88.73 -50.29 C117.02 -51.63, 177.01 -47.86, 194.76 -47.55" stroke="#1e1e1e" stroke-width="2" fill="none"/></g><g transform="translate(446.2561204962167 111.375) rotate(0 98.13450380363065 -24.9375)"><path d="M193.77 -46.26 L182.69 -41.35 L182.93 -53.92 L195.84 -48.64" stroke="none" stroke-width="0" fill="#1e1e1e" fill-rule="evenodd"/><path d="M194.76 -47.55 C189.52 -44.52, 185.9 -43.24, 180.93 -41.74 M194.76 -47.55 C192.05 -46.32, 188.62 -44.73, 180.93 -41.74 M180.93 -41.74 C181.1 -46.2, 182.59 -49.49, 181.42 -54.41 M180.93 -41.74 C180.99 -45.05, 181.21 -48.51, 181.42 -54.41 M181.42 -54.41 C186.3 -53.25, 189.94 -49.83, 194.76 -47.55 M181.42 -54.41 C184.82 -52.24, 190.07 -49.53, 194.76 -47.55 M194.76 -47.55 C194.76 -47.55, 194.76 -47.55, 194.76 -47.55 M194.76 -47.55 C194.76 -47.55, 194.76 -47.55, 194.76 -47.55" stroke="#1e1e1e" stroke-width="2" fill="none"/></g></g><mask/><g transform="translate(386.67100975631 121.125) rotate(0 66.85028076171875 17.5)"><text x="0" y="0" font-family="Virgil, Segoe UI Emoji" font-size="28px" fill="#1e1e1e" text-anchor="start" style="white-space: pre;" direction="ltr" dominant-baseline="text-before-edge">transform</text></g><g stroke-linecap="round"><g transform="translate(102 141.7644310582429) rotate(0 50.5 -0.5)"><path d="M-0.41 -0.48 C16.51 -0.64, 84 -0.84, 100.78 -1.02 M1.58 -1.78 C18.39 -1.73, 82.84 0.3, 99.71 0.5" stroke="#1e1e1e" stroke-width="2" fill="none"/></g><g transform="translate(102 141.7644310582429) rotate(0 50.5 -0.5)"><path d="M100.24 1.11 L86.37 7.05 L85.75 -4.54 L98.28 0.48" stroke="none" stroke-width="0" fill="#1e1e1e" fill-rule="evenodd"/><path d="M99.71 0.5 C95.86 1.6, 93.18 2.42, 85.98 6.53 M99.71 0.5 C95.93 2.56, 93.46 3.18, 85.98 6.53 M85.98 6.53 C85.3 2.92, 86.62 -0.88, 86.27 -6.14 M85.98 6.53 C85.44 3.76, 86.12 0.04, 86.27 -6.14 M86.27 -6.14 C89.98 -3.79, 96.81 -2.63, 99.71 0.5 M86.27 -6.14 C91.72 -3.4, 95.31 -1.29, 99.71 0.5 M99.71 0.5 C99.71 0.5, 99.71 0.5, 99.71 0.5 M99.71 0.5 C99.71 0.5, 99.71 0.5, 99.71 0.5" stroke="#1e1e1e" stroke-width="2" fill="none"/></g></g><mask/><g stroke-linecap="round"><g transform="translate(273 141.18831044096999) rotate(0 52.5 -0.010753647266568578)"><path d="M0.18 -0.08 C17.98 0.04, 88.44 1.06, 105.96 1.01 M-1.18 -1.16 C16.62 -1.39, 87.87 -0.89, 105.51 -0.57" stroke="#1e1e1e" stroke-width="2" fill="none"/></g><g transform="translate(273 141.18831044096999) rotate(0 52.5 -0.010753647266568578)"><path d="M103.98 0.94 L92.63 6.02 L90.36 -6.2 L104.25 -0.7" stroke="none" stroke-width="0" fill="#1e1e1e" fill-rule="evenodd"/><path d="M105.51 -0.57 C102.27 2.09, 100.49 2.7, 91.85 5.62 M105.51 -0.57 C101.33 0.76, 97.4 1.93, 91.85 5.62 M91.85 5.62 C93.02 2.47, 92.46 -1.96, 91.99 -7.06 M91.85 5.62 C92.32 0.41, 91.74 -4.79, 91.99 -7.06 M91.99 -7.06 C97.45 -5.05, 100.66 -2.29, 105.51 -0.57 M91.99 -7.06 C96.47 -3.81, 102.93 -1.61, 105.51 -0.57 M105.51 -0.57 C105.51 -0.57, 105.51 -0.57, 105.51 -0.57 M105.51 -0.57 C105.51 -0.57, 105.51 -0.57, 105.51 -0.57" stroke="#1e1e1e" stroke-width="2" fill="none"/></g></g><mask/><g transform="translate(967.145881652832 123.625) rotate(0 81.99834442138672 17.5)"><text x="0" y="0" font-family="Virgil, Segoe UI Emoji" font-size="28px" fill="#1e1e1e" text-anchor="start" style="white-space: pre;" direction="ltr" dominant-baseline="text-before-edge">communicate</text></g><g stroke-linecap="round"><g transform="translate(835 142.22245810296891) rotate(0 61.5 -1.1236924114994622)"><path d="M0.85 -0.99 C21.33 -1.64, 102.12 -2.4, 122.59 -2.69 M-0.17 1.1 C20.14 1.13, 100.86 -0.93, 121.43 -1.39" stroke="#1e1e1e" stroke-width="2" fill="none"/></g><g transform="translate(835 142.22245810296891) rotate(0 61.5 -1.1236924114994622)"><path d="M121.25 -1.73 L106.64 4.39 L108.1 -8.37 L122.77 -2.97" stroke="none" stroke-width="0" fill="#1e1e1e" fill-rule="evenodd"/><path d="M121.43 -1.39 C116.55 0.03, 113.52 3.21, 107.99 5.27 M121.43 -1.39 C117.41 -0.15, 114.96 2.37, 107.99 5.27 M107.99 5.27 C107.6 3.15, 107.21 -1.62, 107.69 -7.4 M107.99 5.27 C107.68 1.6, 107.33 -2.72, 107.69 -7.4 M107.69 -7.4 C110.36 -5.32, 116.49 -5.04, 121.43 -1.39 M107.69 -7.4 C111.18 -5.17, 114.37 -4.52, 121.43 -1.39 M121.43 -1.39 C121.43 -1.39, 121.43 -1.39, 121.43 -1.39 M121.43 -1.39 C121.43 -1.39, 121.43 -1.39, 121.43 -1.39" stroke="#1e1e1e" stroke-width="2" fill="none"/></g></g><mask/><g transform="translate(999.0302810668945 298) rotate(0 66.05614471435547 10)"><text x="66.05614471435547" y="0" font-family="Virgil, Segoe UI Emoji" font-size="16px" fill="#868e96" text-anchor="middle" style="white-space: pre;" direction="ltr" dominant-baseline="text-before-edge">Taken from r4ds</text></g></svg>